<svg xmlns="http://www.w3.org/2000/svg" viewBox="0 0 1000 1000" role="img" aria-label="CoreX isotipo">
  <defs>
    <linearGradient id="outerFill" x1="250" y1="180" x2="820" y2="820" gradientUnits="userSpaceOnUse">
      <stop offset="0" stop-color="#FFFFFF"/>
      <stop offset="0.55" stop-color="#FAFBFC"/>
      <stop offset="1" stop-color="#EFF2F4"/>
    </linearGradient>
    <linearGradient id="innerFill" x1="385" y1="285" x2="750" y2="705" gradientUnits="userSpaceOnUse">
      <stop offset="0" stop-color="#BAC3CB"/>
      <stop offset="0.52" stop-color="#A3ADB6"/>
      <stop offset="1" stop-color="#8E98A2"/>
    </linearGradient>
    <radialGradient id="nodeBlue" cx="42%" cy="35%" r="70%">
      <stop offset="0" stop-color="#A7B6C4"/>
      <stop offset="1" stop-color="#738596"/>
    </radialGradient>
    <filter id="softShadow" x="-10%" y="-10%" width="120%" height="120%">
      <feDropShadow dx="0" dy="1.4" stdDeviation="1.6" flood-color="#101418" flood-opacity="0.16"/>
    </filter>
  </defs>
  <g filter="url(#softShadow)">
    <path d="M 804.6 348.3 A 302.5 302.5 0 1 0 717.8 739.7" fill="none" stroke="url(#outerFill)" stroke-width="45.0" stroke-linecap="butt"/>
    <path d="M 824.3 337.4 A 325.0 325.0 0 1 0 731.0 757.9" fill="none" stroke="#C6CBD0" stroke-width="1.3" stroke-linecap="butt"/>
    <path d="M 784.9 359.3 A 280.0 280.0 0 1 0 704.6 721.5" fill="none" stroke="#60676F" stroke-width="1.4" stroke-linecap="butt"/>
    <line x1="784.9" y1="359.3" x2="824.3" y2="337.4" stroke="#C6CBD0" stroke-width="1.3"/>
    <line x1="704.6" y1="721.5" x2="731.0" y2="757.9" stroke="#C6CBD0" stroke-width="1.3"/>
    <path d="M 675.8 384.6 A 187.5 187.5 0 1 0 648.5 643.6" fill="none" stroke="#77818B" stroke-width="38" stroke-linecap="butt"/>
    <path d="M 675.8 384.6 A 187.5 187.5 0 1 0 648.5 643.6" fill="none" stroke="url(#innerFill)" stroke-width="35" stroke-linecap="butt"/>
    <path d="M 687.0 400.6 A 187.5 187.5 0 0 1 695.1 585.1" fill="none" stroke="#77818B" stroke-width="38" stroke-linecap="butt"/>
    <path d="M 687.0 400.6 A 187.5 187.5 0 0 1 695.1 585.1" fill="none" stroke="url(#innerFill)" stroke-width="35" stroke-linecap="butt"/>
    <polygon points="620 405 640 425 729 337 709 317" fill="url(#innerFill)" stroke="#727C86" stroke-width="2"/>
    <polygon points="616.5 585.6 635.7 566.9 708.5 641.2 689.3 659.9" fill="url(#innerFill)" stroke="#727C86" stroke-width="2"/>
    <circle cx="528.7" cy="498.1" r="90.3" fill="#FFFFFF" stroke="#B9BEC3" stroke-width="2.2"/>
    <circle cx="355.5" cy="402.4" r="38.4" fill="#FFFFFF" stroke="#B9BEC3" stroke-width="2.2"/>
    <circle cx="758.4" cy="682.8" r="50.4" fill="url(#nodeBlue)" stroke="#586574" stroke-width="2.4"/>
  </g>
</svg>
